<svg id="Layer_1" data-name="Layer 1" xmlns="http://www.w3.org/2000/svg" viewBox="0 0 559.55 246.22"><defs><style>.cls-1{fill:#80b441;}.cls-2{fill:#f7f7f7;}</style></defs><title>cypht_logo_white</title><path class="cls-1" d="M189.83,391.4q46.63,0,71.35-14.21v-13.7H107Q139.56,391.39,189.83,391.4Z" transform="translate(-32.84 -145.18)"/><path class="cls-1" d="M98.84,355.8H261.18V319q-26.1,17-53.34,17-30.71,0-48.26-17.76c-.15-.16-.29-.32-.44-.47H75.07A106.61,106.61,0,0,0,98.84,355.8Z" transform="translate(-32.84 -145.18)"/><path class="cls-1" d="M67.92,274a132.58,132.58,0,0,0,4.68,36h80.34q-10.29-15.35-10.86-38.11H67.94C67.93,272.6,67.92,273.31,67.92,274Z" transform="translate(-32.84 -145.18)"/><path class="cls-1" d="M68.18,264.2h74q1.07-22.81,12.08-38.12H75A146.51,146.51,0,0,0,68.18,264.2Z" transform="translate(-32.84 -145.18)"/><path class="cls-1" d="M192.22,180.28v22.08a90.15,90.15,0,0,1,17.93-1.7,83.58,83.58,0,0,1,51,17V180.28Z" transform="translate(-32.84 -145.18)"/><path class="cls-1" d="M127.45,180.28h-69A110,110,0,0,0,32.84,218.4h69A110,110,0,0,1,127.45,180.28Z" transform="translate(-32.84 -145.18)"/><path class="cls-1" d="M92,218.4h69a58.88,58.88,0,0,1,14.84-10.47,83.47,83.47,0,0,0-34.56-7.27Q110.23,200.66,92,218.4Z" transform="translate(-32.84 -145.18)"/><path class="cls-1" d="M103.45,180.28A110,110,0,0,0,77.8,218.4H92q18.27-17.73,49.23-17.74a83.47,83.47,0,0,1,34.56,7.27,67.11,67.11,0,0,1,16.47-5.57V180.28Z" transform="translate(-32.84 -145.18)"/><path class="cls-1" d="M261.18,156.19q-18.7-11-60.5-11-53.91,0-88.47,27.42h149Z" transform="translate(-32.84 -145.18)"/><path class="cls-2" d="M354.43,245.57l-30.47,81q-11,29.24-33.11,29.23A42.38,42.38,0,0,1,277,353.89V335.43a19.45,19.45,0,0,0,10,2.71q8.93,0,12.45-8.42l3.95-9.3L273,245.57h25.64l14,45.63a59.21,59.21,0,0,1,2.05,10H315a70.45,70.45,0,0,1,2.42-9.89l14.13-45.77Z" transform="translate(-32.84 -145.18)"/><path class="cls-2" d="M387.17,311.85h-.3v43.21H363.73V245.57h23.14v11.28h.3q8.56-13.11,24.09-13.11,14.58,0,22.53,10t7.94,27.21q0,18.75-9.26,30.11T407.82,322.4Q394.28,322.4,387.17,311.85Zm-.66-30.76v6q0,7.75,4.1,12.67a13.34,13.34,0,0,0,10.77,4.9,14.16,14.16,0,0,0,12.26-6.11q4.37-6.12,4.36-17.32,0-19.78-15.38-19.78A14.44,14.44,0,0,0,391,266.84Q386.51,272.23,386.51,281.09Z" transform="translate(-32.84 -145.18)"/><path class="cls-2" d="M528.74,320.57H505.67V277.94q0-16.49-12-16.48a12.31,12.31,0,0,0-10,4.61,17.82,17.82,0,0,0-3.81,11.72v42.78H456.75v-111h23.14V256.7h.3q8.49-13,23.07-13,25.49,0,25.48,30.76Z" transform="translate(-32.84 -145.18)"/><path class="cls-2" d="M552.48,262.63V297q0,25.42,24.46,25.42,10.32,0,15.45-2.71V302.55a15.63,15.63,0,0,1-7.54,2.12q-9.3,0-9.3-11.72V262.63Z" transform="translate(-32.84 -145.18)"/><polygon class="cls-2" points="552.33 113.96 552.33 104.29 538.27 104.29 519.01 104.29 508.86 104.29 508.86 113.96 519.01 113.96 538.27 113.96 552.33 113.96"/><polygon class="cls-1" points="527.21 92.21 519.66 86.61 519.66 100.38 542.74 100.38 542.74 79.92 527.21 92.21"/><polygon class="cls-1" points="542.74 76.69 542.74 75.96 519.66 81.9 519.66 83.34 527.21 88.9 542.74 76.69"/></svg>